<svg version="1.1" xmlns="http://www.w3.org/2000/svg"  viewBox="0 0 120 120" width="120" height="120"><path d="M0 0 C39.6 0 79.2 0 120 0 C120 39.6 120 79.2 120 120 C80.4 120 40.8 120 0 120 C0 80.4 0 40.8 0 0 Z " transform="translate(0,0)" style="fill: #0F9D58;"></path><path d="M0 0 C4.80646871 2.67355193 9.49211637 5.66688549 13.53515625 9.41015625 C13.53515625 12.41015625 13.53515625 12.41015625 11.78515625 14.16015625 C9.53515625 15.41015625 9.53515625 15.41015625 7.671875 15.171875 C5.15094047 14.27318719 3.27971963 13.01938749 1.09765625 11.47265625 C-4.92831912 7.20731369 -10.09157844 5.40011991 -17.46484375 6.41015625 C-21.399337 7.74183089 -23.94970623 9.69561065 -26.40234375 13.09765625 C-27.7508155 17.30171522 -28.11505649 21.03372438 -27.46484375 25.41015625 C-26.10599259 27.81099063 -26.10599259 27.81099063 -24.46484375 29.41015625 C-24.46484375 30.07015625 -24.46484375 30.73015625 -24.46484375 31.41015625 C-23.68109375 31.71953125 -22.89734375 32.02890625 -22.08984375 32.34765625 C-19.46484375 33.41015625 -19.46484375 33.41015625 -17.46484375 34.41015625 C-9.97187409 35.35843664 -4.65629228 33.6220303 1.2734375 29.078125 C8.17956156 22.80704683 12.79171296 14.06852295 17.48828125 6.09375 C18.08125 5.10503906 18.67421875 4.11632813 19.28515625 3.09765625 C20.05085938 1.77314453 20.05085938 1.77314453 20.83203125 0.421875 C22.96333066 -2.09560022 24.35945924 -2.09327668 27.53515625 -2.58984375 C32.72456947 5.73118641 37.78964435 14.10692089 42.60229492 22.65185547 C43.27592875 23.84182624 43.95581141 25.0282776 44.64135742 26.21142578 C45.6523475 27.9572284 46.64290974 29.71481091 47.6328125 31.47265625 C48.50691772 33.00599609 48.50691772 33.00599609 49.39868164 34.5703125 C50.66830571 37.74287259 50.56172711 39.20281195 49.53515625 42.41015625 C47.41015625 43.18359375 47.41015625 43.18359375 44.53515625 43.41015625 C42.3021816 42.03275069 40.5086066 40.7203905 38.53515625 39.03515625 C37.39833756 38.1075994 36.25893483 37.18320205 35.1171875 36.26171875 C34.53275879 35.78766602 33.94833008 35.31361328 33.34619141 34.82519531 C29.37455948 31.72198978 25.12066489 29.00528623 20.921875 26.22265625 C20.13425781 25.62453125 19.34664062 25.02640625 18.53515625 24.41015625 C18.53515625 22.41015625 18.53515625 22.41015625 20.16015625 20.72265625 C22.53515625 19.41015625 22.53515625 19.41015625 25.47265625 19.47265625 C28.53515625 20.41015625 28.53515625 20.41015625 33.53515625 24.41015625 C29.57515625 17.48015625 29.57515625 17.48015625 25.53515625 10.41015625 C24.52453125 11.85390625 23.51390625 13.29765625 22.47265625 14.78515625 C21.83070312 15.6978125 21.18875 16.61046875 20.52734375 17.55078125 C19.26548221 19.36192369 18.01867161 21.18372517 16.79296875 23.01953125 C10.78139946 31.93992439 4.18972567 40.1583397 -6.46484375 43.41015625 C-13.23448531 44.33069716 -19.76871999 44.32434222 -25.75390625 40.73828125 C-31.63859052 36.1702615 -35.78975627 30.3457958 -36.81640625 22.83984375 C-37.18573413 15.86149071 -35.72555372 10.95690728 -31.46484375 5.41015625 C-22.83014544 -3.84957384 -11.30673896 -5.12939865 0 0 Z " transform="translate(52.46484375,39.58984375)" style="fill: #F7FCF9;"></path><path d="M0 0 C2.63884562 2.40111178 4.36413529 5.00555028 6.1875 8.0625 C6.71730469 8.94035156 7.24710938 9.81820312 7.79296875 10.72265625 C9 13 9 13 9 15 C6.50638429 13.79618552 4.31856917 12.54571278 2 11 C-2.50319149 11.24341576 -5.4132414 13.41419729 -9 16 C-7.56691865 12.04093183 -5.66858051 8.71281819 -3.375 5.1875 C-2.74335937 4.21167969 -2.11171875 3.23585937 -1.4609375 2.23046875 C-0.73777344 1.12638672 -0.73777344 1.12638672 0 0 Z " transform="translate(77,49)" style="fill: #22A465;"></path></svg>